<svg xmlns="http://www.w3.org/2000/svg" xmlns:xlink="http://www.w3.org/1999/xlink" width="500" zoomAndPan="magnify" viewBox="0 0 375 374.999991" height="500" preserveAspectRatio="xMidYMid meet" version="1.0"><path fill="#2fcaaa" d="M 0 375 L 375 375 L 375 0 L 0 0 Z M 211.703125 113.015625 C 211.703125 102.796875 219.078125 87.578125 240.171875 87.578125 C 261.265625 87.578125 265.625 102.5625 265.625 102.5625 L 256.65625 108.578125 C 256.65625 108.578125 252.046875 98.109375 240.171875 98.109375 C 233.5625 98.109375 223.6875 104.21875 223.6875 114.59375 L 223.6875 137.015625 C 223.6875 148.234375 229.203125 156.515625 238.671875 156.515625 C 250.46875 156.515625 256.671875 147.390625 256.671875 134.09375 L 241.6875 134.09375 L 241.6875 125.125 L 267.140625 125.125 C 267.140625 142.28125 271.0625 166.890625 238.671875 166.890625 L 238.65625 166.90625 C 219.15625 166.90625 211.703125 153.765625 211.703125 139.96875 Z M 88.046875 273.125 C 101.03125 270.703125 106.453125 272.03125 106.453125 253.125 L 106.453125 161.546875 C 106.453125 142.640625 101.09375 143.96875 88.046875 141.546875 L 88.046875 134.765625 C 109.640625 135.609375 132.5 134.265625 147.390625 134.265625 C 173.921875 134.265625 194.171875 146.3125 194.171875 172.421875 C 194.171875 190.078125 180.1875 207.75 161.34375 212.1875 C 172.71875 232.4375 186.453125 250.359375 196.65625 261.484375 C 202.671875 268.015625 211.046875 273.78125 219.421875 273.78125 L 219.421875 279.890625 L 219.453125 279.890625 C 213.9375 282.40625 191.671875 284.90625 177.59375 268 C 169.890625 259.125 156.421875 240.125 142.265625 214.765625 C 134.8125 214.765625 129.96875 214.765625 124.359375 214.265625 L 124.359375 253.125 C 124.359375 272.796875 129.375 270.875 145.953125 273.125 L 145.953125 279.90625 C 140.1875 279.65625 126.609375 279.21875 116.140625 279.21875 C 105.171875 279.21875 94.296875 279.71875 88.015625 279.90625 L 88.015625 273.125 Z M 88.046875 273.125 " fill-opacity="1" fill-rule="nonzero"/><path fill="#2fcaaa" d="M 141.125 204.34375 C 161.796875 204.34375 174.359375 192.03125 174.359375 173.703125 C 174.359375 155.046875 162.71875 144.828125 143.21875 144.828125 C 136.9375 144.828125 129.734375 144.828125 124.375 145.328125 L 124.375 203.671875 C 129.75 204.078125 133.25 204.328125 141.125 204.328125 Z M 141.125 204.34375 " fill-opacity="1" fill-rule="nonzero"/></svg>